<svg xmlns="http://www.w3.org/2000/svg" width="920" height="620" viewBox="0 0 920 620" role="img" aria-label="People building templates illustration">
  <defs>
    <linearGradient id="bg" x1="0" y1="0" x2="1" y2="1">
      <stop offset="0" stop-color="#6366f1" stop-opacity="0.18"/>
      <stop offset="1" stop-color="#6366f1" stop-opacity="0.04"/>
    </linearGradient>
    <linearGradient id="card" x1="0" y1="0" x2="1" y2="1">
      <stop offset="0" stop-color="#ffffff" stop-opacity="0.92"/>
      <stop offset="1" stop-color="#ffffff" stop-opacity="0.72"/>
    </linearGradient>
  </defs>

  <rect x="40" y="40" width="840" height="540" rx="34" fill="url(#bg)" stroke="#6366f1" stroke-opacity="0.22"/>

  <g opacity="0.9">
    <rect x="110" y="120" width="420" height="54" rx="16" fill="#6366f1" fill-opacity="0.16"/>
    <rect x="110" y="196" width="560" height="18" rx="9" fill="#0f172a" fill-opacity="0.08"/>
    <rect x="110" y="222" width="520" height="18" rx="9" fill="#0f172a" fill-opacity="0.08"/>
    <rect x="110" y="248" width="460" height="18" rx="9" fill="#0f172a" fill-opacity="0.08"/>
  </g>

  <g>
    <rect x="110" y="300" width="360" height="230" rx="28" fill="url(#card)" stroke="#0f172a" stroke-opacity="0.10"/>
    <rect x="500" y="300" width="300" height="230" rx="28" fill="url(#card)" stroke="#0f172a" stroke-opacity="0.10"/>

    <rect x="142" y="336" width="170" height="22" rx="11" fill="#6366f1" fill-opacity="0.18"/>
    <rect x="142" y="366" width="260" height="14" rx="7" fill="#0f172a" fill-opacity="0.08"/>
    <rect x="142" y="388" width="220" height="14" rx="7" fill="#0f172a" fill-opacity="0.08"/>

    <rect x="532" y="336" width="170" height="22" rx="11" fill="#6366f1" fill-opacity="0.18"/>
    <rect x="532" y="366" width="220" height="14" rx="7" fill="#0f172a" fill-opacity="0.08"/>
    <rect x="532" y="388" width="200" height="14" rx="7" fill="#0f172a" fill-opacity="0.08"/>

    <g opacity="0.95">
      <circle cx="260" cy="485" r="34" fill="#6366f1" fill-opacity="0.15" stroke="#6366f1" stroke-opacity="0.25"/>
      <path d="M246 486l10 10 22-26" fill="none" stroke="#4f46e5" stroke-width="10" stroke-linecap="round" stroke-linejoin="round"/>

      <circle cx="620" cy="485" r="34" fill="#6366f1" fill-opacity="0.15" stroke="#6366f1" stroke-opacity="0.25"/>
      <path d="M604 485h32" fill="none" stroke="#4f46e5" stroke-width="10" stroke-linecap="round"/>
      <path d="M604 500h22" fill="none" stroke="#4f46e5" stroke-width="10" stroke-linecap="round" opacity="0.7"/>
    </g>
  </g>

  <g opacity="0.35">
    <circle cx="810" cy="118" r="22" fill="#6366f1"/>
    <circle cx="120" cy="96" r="10" fill="#6366f1"/>
    <circle cx="760" cy="560" r="14" fill="#6366f1"/>
  </g>
</svg>
