<svg xmlns="http://www.w3.org/2000/svg" width="920" height="620" viewBox="0 0 920 620" role="img" aria-label="Values board illustration">
  <defs>
    <linearGradient id="panel" x1="0" y1="0" x2="1" y2="1">
      <stop offset="0" stop-color="#ffffff" stop-opacity="0.92"/>
      <stop offset="1" stop-color="#ffffff" stop-opacity="0.72"/>
    </linearGradient>
    <linearGradient id="wash" x1="0" y1="0" x2="1" y2="1">
      <stop offset="0" stop-color="#6366f1" stop-opacity="0.14"/>
      <stop offset="1" stop-color="#6366f1" stop-opacity="0.04"/>
    </linearGradient>
  </defs>

  <rect x="60" y="70" width="800" height="480" rx="36" fill="url(#wash)" stroke="#0f172a" stroke-opacity="0.10"/>
  <rect x="120" y="130" width="680" height="360" rx="28" fill="url(#panel)" stroke="#0f172a" stroke-opacity="0.10"/>

  <rect x="160" y="170" width="240" height="30" rx="15" fill="#6366f1" fill-opacity="0.18"/>
  <rect x="160" y="215" width="520" height="14" rx="7" fill="#0f172a" fill-opacity="0.08"/>
  <rect x="160" y="238" width="460" height="14" rx="7" fill="#0f172a" fill-opacity="0.08"/>

  <rect x="160" y="285" width="290" height="160" rx="24" fill="#ffffff" fill-opacity="0.78" stroke="#0f172a" stroke-opacity="0.08"/>
  <rect x="510" y="285" width="290" height="160" rx="24" fill="#ffffff" fill-opacity="0.78" stroke="#0f172a" stroke-opacity="0.08"/>

  <circle cx="240" cy="365" r="30" fill="#6366f1" fill-opacity="0.15" stroke="#6366f1" stroke-opacity="0.25"/>
  <path d="M226 366l10 10 22-26" fill="none" stroke="#4f46e5" stroke-width="10" stroke-linecap="round" stroke-linejoin="round"/>

  <circle cx="590" cy="365" r="30" fill="#6366f1" fill-opacity="0.15" stroke="#6366f1" stroke-opacity="0.25"/>
  <path d="M575 356h30" fill="none" stroke="#4f46e5" stroke-width="10" stroke-linecap="round"/>
  <path d="M575 378h20" fill="none" stroke="#4f46e5" stroke-width="10" stroke-linecap="round" opacity="0.7"/>

  <g opacity="0.35">
    <circle cx="120" cy="520" r="14" fill="#6366f1"/>
    <circle cx="820" cy="120" r="20" fill="#6366f1"/>
  </g>
</svg>
